<svg xmlns="http://www.w3.org/2000/svg" width="22" height="12" viewBox="0 0 22 12">
  <defs>
    <style>
      .cls-1 {
        fill: #fff;
        fill-rule: evenodd;
      }
    </style>
  </defs>
  <path id="Forma_1" data-name="Forma 1" class="cls-1" d="M1216.7,1547.18a0.937,0.937,0,0,0-1.36,0l-1.35,1.4V1541a0.991,0.991,0,0,0-.97-1h-9.44a1,1,0,0,0,0,2h8.48v6.58l-1.36-1.4a0.937,0.937,0,0,0-1.36,0,1.014,1.014,0,0,0,0,1.41l3,3.12a0.98,0.98,0,0,0,.68.29,0.962,0.962,0,0,0,.68-0.29l3-3.12A1.014,1.014,0,0,0,1216.7,1547.18Zm-8.3,2.82h-8.47v-6.58l1.35,1.4a0.942,0.942,0,0,0,1.36,0,1.014,1.014,0,0,0,0-1.41l-3-3.12a0.962,0.962,0,0,0-.68-0.29,0.98,0.98,0,0,0-.68.29l-3,3.12a1.014,1.014,0,0,0,0,1.41,0.948,0.948,0,0,0,1.37,0l1.35-1.4V1551a0.982,0.982,0,0,0,.96,1h9.44A1,1,0,0,0,1208.4,1550Z" transform="translate(-1195 -1540)"/>
</svg>
