<svg xmlns="http://www.w3.org/2000/svg" width="22" height="21" viewBox="0 0 22 21">
  <defs>
    <style>
      .cls-1 {
        fill: #fff;
        stroke: #fff;
        stroke-linejoin: round;
        stroke-width: 1px;
        fill-rule: evenodd;
      }
    </style>
  </defs>
  <path id="Forma_1" data-name="Forma 1" class="cls-1" d="M1272,1554a0.561,0.561,0,0,1-.4-0.17l-6.39-6.92-0.01-.01a4.907,4.907,0,0,1,0-6.43l0.1-.11a3.923,3.923,0,0,1,5.94,0l0.76,0.84,0.76-.84a3.923,3.923,0,0,1,5.94,0l0.1,0.11a4.92,4.92,0,0,1,0,6.44h-0.01l-6.39,6.92A0.561,0.561,0,0,1,1272,1554Zm-6-7.83,6,6.49,6-6.49a3.8,3.8,0,0,0-.01-4.97l-0.09-.11a2.915,2.915,0,0,0-2.17-1,2.884,2.884,0,0,0-2.17,1l-1.16,1.29a0.534,0.534,0,0,1-.8,0l-1.16-1.29a2.884,2.884,0,0,0-2.17-1,2.915,2.915,0,0,0-2.17,1l-0.09.11A3.8,3.8,0,0,0,1266,1546.17Z" transform="translate(-1261 -1536)"/>
</svg>
